<svg width="92" height="102" viewBox="0 0 92 102" fill="none" xmlns="http://www.w3.org/2000/svg">
<g clip-path="url(#clip0)">
<path d="M45.72 89.94C70.142 89.94 89.94 70.142 89.94 45.72C89.94 21.298 70.142 1.5 45.72 1.5C21.298 1.5 1.5 21.298 1.5 45.72C1.5 70.142 21.298 89.94 45.72 89.94Z" fill="white"/>
<path d="M45.7201 91.44C36.6775 91.44 27.838 88.7586 20.3194 83.7348C12.8008 78.711 6.94074 71.5705 3.4803 63.2163C0.019866 54.8621 -0.885618 45.6693 0.878498 36.8005C2.64261 27.9317 6.99714 19.7852 13.3912 13.3911C19.7852 6.99705 27.9316 2.64265 36.8004 0.878529C45.6692 -0.885587 54.8622 0.0197756 63.2164 3.48021C71.5706 6.94065 78.7109 12.8007 83.7347 20.3193C88.7585 27.8379 91.44 36.6775 91.44 45.72C91.4268 57.8417 86.6056 69.463 78.0343 78.0343C69.463 86.6056 57.8417 91.4268 45.7201 91.44ZM45.7201 2.99999C37.2708 2.99999 29.0114 5.5055 21.9862 10.1996C14.9609 14.8938 9.48516 21.5657 6.25179 29.3718C3.01841 37.1778 2.17252 45.7674 3.82088 54.0542C5.46924 62.3411 9.53803 69.9531 15.5125 75.9276C21.487 81.9021 29.099 85.9708 37.3858 87.6192C45.6727 89.2676 54.2621 88.4215 62.0682 85.1882C69.8743 81.9548 76.5462 76.4792 81.2403 69.454C85.9344 62.4287 88.44 54.1692 88.44 45.72C88.4268 34.394 83.9216 23.5357 75.9129 15.527C67.9042 7.51834 57.046 3.01322 45.7201 2.99999Z" fill="#F0525E"/>
<path d="M30.3098 43.4101C31.9722 43.4101 33.3198 42.0625 33.3198 40.4001C33.3198 38.7378 31.9722 37.3901 30.3098 37.3901C28.6474 37.3901 27.2998 38.7378 27.2998 40.4001C27.2998 42.0625 28.6474 43.4101 30.3098 43.4101Z" fill="#F1505E"/>
<path d="M61.1301 43.4101C62.7925 43.4101 64.1401 42.0625 64.1401 40.4001C64.1401 38.7378 62.7925 37.3901 61.1301 37.3901C59.4677 37.3901 58.1201 38.7378 58.1201 40.4001C58.1201 42.0625 59.4677 43.4101 61.1301 43.4101Z" fill="#F1505E"/>
<path d="M55.0902 71.1498C54.8353 71.1509 54.5844 71.0861 54.3619 70.9617C54.1394 70.8373 53.9528 70.6575 53.8202 70.4398C53.8202 70.3898 50.9102 65.8599 46.1202 65.8599C41.3302 65.8599 37.9703 70.4598 37.9303 70.5098C37.8237 70.6853 37.6822 70.837 37.5145 70.9555C37.3469 71.074 37.1566 71.1569 36.9557 71.199C36.7547 71.241 36.5474 71.2414 36.3463 71.2C36.1452 71.1586 35.9545 71.0764 35.7865 70.9584C35.6185 70.8405 35.4765 70.6892 35.3693 70.5142C35.262 70.3391 35.1919 70.1438 35.1632 69.9406C35.1345 69.7373 35.1477 69.5302 35.2023 69.3323C35.2568 69.1343 35.3516 68.9498 35.4803 68.7899C35.6403 68.5499 39.6802 62.8599 46.1202 62.8599C52.5602 62.8599 56.2202 68.6199 56.3702 68.8599C56.5112 69.0874 56.5888 69.3485 56.5948 69.6161C56.6009 69.8837 56.535 70.1481 56.4044 70.3817C56.2738 70.6154 56.0833 70.8098 55.8522 70.9449C55.6211 71.08 55.3579 71.1507 55.0902 71.1498Z" fill="#F0525D"/>
<path d="M76.2803 29.31C76.0446 29.3121 75.8118 29.2577 75.6013 29.1516C75.3909 29.0455 75.2086 28.8907 75.0701 28.7C72.9209 25.5879 70.3228 22.8111 67.3601 20.4601C67.194 20.3417 67.0538 20.1908 66.948 20.0164C66.8422 19.842 66.7731 19.6479 66.7449 19.4459C66.7167 19.2439 66.73 19.0382 66.7839 18.8415C66.8379 18.6448 66.9313 18.4612 67.0586 18.3019C67.1859 18.1425 67.3445 18.0108 67.5244 17.9148C67.7044 17.8188 67.902 17.7605 68.1052 17.7435C68.3085 17.7265 68.5131 17.7512 68.7066 17.8159C68.9 17.8806 69.0782 17.9841 69.2302 18.1201C72.4022 20.6273 75.1827 23.5932 77.4802 26.9201C77.5974 27.0789 77.6819 27.2592 77.7293 27.4508C77.7766 27.6424 77.7856 27.8414 77.7559 28.0365C77.7261 28.2316 77.6584 28.4188 77.5562 28.5876C77.4539 28.7564 77.3193 28.9034 77.1602 29.0201C76.9064 29.2104 76.5974 29.3122 76.2803 29.31Z" fill="#FCB8BF"/>
<path d="M64.5399 17.76C64.2276 17.7608 63.923 17.6628 63.6698 17.48C63.1534 17.1098 62.6123 16.7756 62.0499 16.48C61.8746 16.39 61.7187 16.2664 61.5912 16.1162C61.4636 15.966 61.3668 15.7922 61.3065 15.6046C61.2461 15.4171 61.2233 15.2194 61.2393 15.023C61.2554 14.8266 61.3098 14.6353 61.3997 14.46C61.4897 14.2847 61.6133 14.1288 61.7635 14.0012C61.9137 13.8737 62.0877 13.777 62.2752 13.7166C62.4628 13.6563 62.6604 13.6335 62.8568 13.6495C63.0532 13.6655 63.2444 13.72 63.4198 13.81C64.1126 14.1721 64.7807 14.5797 65.4198 15.03C65.678 15.2147 65.8709 15.4766 65.9708 15.7779C66.0707 16.0793 66.0724 16.4046 65.9757 16.707C65.879 17.0094 65.689 17.2733 65.4327 17.4607C65.1764 17.6482 64.8674 17.7494 64.5499 17.75L64.5399 17.76Z" fill="#FCB8BF"/>
<path d="M45.7198 101.8C67.7891 101.8 85.6798 100.246 85.6798 98.3299C85.6798 96.4134 67.7891 94.8599 45.7198 94.8599C23.6505 94.8599 5.75977 96.4134 5.75977 98.3299C5.75977 100.246 23.6505 101.8 45.7198 101.8Z" fill="#F1505E"/>
</g>
<defs>
<clipPath id="clip0">
<rect width="91.44" height="101.79" fill="white"/>
</clipPath>
</defs>
</svg>
