<svg width="92" height="102" viewBox="0 0 92 102" fill="none" xmlns="http://www.w3.org/2000/svg">
<g clip-path="url(#clip0)">
<path d="M45.72 89.94C70.142 89.94 89.94 70.142 89.94 45.72C89.94 21.298 70.142 1.5 45.72 1.5C21.298 1.5 1.5 21.298 1.5 45.72C1.5 70.142 21.298 89.94 45.72 89.94Z" fill="white"/>
<path d="M45.7298 91.44C36.6873 91.44 27.8478 88.7586 20.3292 83.7348C12.8106 78.711 6.95051 71.5705 3.49007 63.2163C0.0296316 54.8621 -0.875853 45.6693 0.888264 36.8005C2.65238 27.9317 7.00678 19.7852 13.4008 13.3911C19.7949 6.99705 27.9414 2.64265 36.8103 0.878529C45.6791 -0.885587 54.8719 0.0197756 63.2262 3.48021C71.5804 6.94065 78.7209 12.8007 83.7447 20.3193C88.7685 27.8379 91.4498 36.6775 91.4498 45.72C91.4365 57.8417 86.6153 69.463 78.044 78.0343C69.4727 86.6056 57.8515 91.4268 45.7298 91.44ZM45.7298 2.99999C37.2806 2.99999 29.0211 5.5055 21.9958 10.1996C14.9705 14.8938 9.49505 21.5657 6.26168 29.3718C3.0283 37.1778 2.18229 45.7674 3.83065 54.0542C5.47901 62.3411 9.54768 69.9531 15.5222 75.9276C21.4967 81.9021 29.1087 85.9708 37.3956 87.6192C45.6825 89.2676 54.272 88.4215 62.0781 85.1882C69.8841 81.9548 76.5559 76.4792 81.2501 69.454C85.9442 62.4287 88.4498 54.1692 88.4498 45.72C88.4366 34.394 83.9314 23.5357 75.9227 15.527C67.914 7.51834 57.0558 3.01322 45.7298 2.99999Z" fill="#00A480"/>
<path d="M30.3098 43.4101C31.9722 43.4101 33.3198 42.0625 33.3198 40.4001C33.3198 38.7378 31.9722 37.3901 30.3098 37.3901C28.6474 37.3901 27.2998 38.7378 27.2998 40.4001C27.2998 42.0625 28.6474 43.4101 30.3098 43.4101Z" fill="#00A480"/>
<path d="M61.1301 43.4101C62.7925 43.4101 64.1401 42.0625 64.1401 40.4001C64.1401 38.7378 62.7925 37.3901 61.1301 37.3901C59.4677 37.3901 58.1201 38.7378 58.1201 40.4001C58.1201 42.0625 59.4677 43.4101 61.1301 43.4101Z" fill="#00A480"/>
<path d="M45.7299 71.1502C39.2399 71.1502 35.6299 65.3902 35.4799 65.1502C35.2756 64.8122 35.2129 64.4072 35.3053 64.0232C35.3978 63.6393 35.6378 63.3072 35.9736 63.0992C36.3093 62.8912 36.7136 62.824 37.0986 62.9122C37.4835 63.0003 37.8182 63.2368 38.03 63.5702C38.03 63.5702 40.9399 68.1502 45.7299 68.1502C50.5199 68.1502 53.88 63.5502 53.91 63.5002C54.138 63.1739 54.4863 62.9518 54.8782 62.8824C55.2702 62.813 55.6737 62.9021 55.9999 63.1302C56.3261 63.3583 56.5483 63.7066 56.6177 64.0986C56.6871 64.4905 56.598 64.894 56.3699 65.2202C56.1499 65.4602 52.1099 71.1502 45.7299 71.1502Z" fill="#00A480"/>
<path d="M76.2803 29.31C76.0446 29.3121 75.8118 29.2577 75.6013 29.1516C75.3909 29.0455 75.2089 28.8907 75.0703 28.7C72.9212 25.5879 70.3228 22.8111 67.3601 20.4601C67.194 20.3417 67.0538 20.1908 66.948 20.0164C66.8422 19.842 66.7731 19.6479 66.7449 19.4459C66.7167 19.2439 66.73 19.0382 66.7839 18.8415C66.8379 18.6448 66.9313 18.4612 67.0586 18.3019C67.1859 18.1425 67.3445 18.0108 67.5244 17.9148C67.7044 17.8188 67.902 17.7605 68.1052 17.7435C68.3085 17.7265 68.5131 17.7512 68.7066 17.8159C68.9 17.8806 69.0782 17.9841 69.2302 18.1201C72.4022 20.6273 75.1827 23.5932 77.4802 26.9201C77.5974 27.0789 77.6819 27.2592 77.7293 27.4508C77.7766 27.6424 77.7858 27.8414 77.7561 28.0365C77.7264 28.2316 77.6584 28.4188 77.5562 28.5876C77.4539 28.7564 77.3193 28.9034 77.1602 29.0201C76.9064 29.2104 76.5974 29.3122 76.2803 29.31Z" fill="#9CEAD3"/>
<path d="M64.5399 17.76C64.2274 17.7622 63.9223 17.664 63.6698 17.48C63.1534 17.1098 62.6122 16.7756 62.0498 16.48C61.8745 16.39 61.7186 16.2664 61.591 16.1162C61.4635 15.966 61.3668 15.7922 61.3065 15.6046C61.2461 15.4171 61.2233 15.2194 61.2393 15.023C61.2554 14.8266 61.3099 14.6353 61.3999 14.46C61.4898 14.2847 61.6134 14.1288 61.7636 14.0012C61.9138 13.8737 62.0877 13.777 62.2752 13.7166C62.4628 13.6563 62.6604 13.6335 62.8568 13.6495C63.0532 13.6655 63.2444 13.72 63.4198 13.81C64.1126 14.1721 64.7807 14.5797 65.4198 15.03C65.678 15.2147 65.8711 15.4766 65.971 15.7779C66.0709 16.0793 66.0726 16.4046 65.9759 16.707C65.8792 17.0094 65.689 17.2733 65.4327 17.4607C65.1764 17.6482 64.8673 17.7494 64.5498 17.75L64.5399 17.76Z" fill="#9CEAD3"/>
<path d="M45.7198 101.8C67.7891 101.8 85.6798 100.246 85.6798 98.3299C85.6798 96.4134 67.7891 94.8599 45.7198 94.8599C23.6505 94.8599 5.75977 96.4134 5.75977 98.3299C5.75977 100.246 23.6505 101.8 45.7198 101.8Z" fill="#00A480"/>
</g>
<defs>
<clipPath id="clip0">
<rect width="91.44" height="101.79" fill="white"/>
</clipPath>
</defs>
</svg>
