<?xml version="1.0" encoding="utf-8"?>
<!-- Generator: Adobe Illustrator 25.3.1, SVG Export Plug-In . SVG Version: 6.00 Build 0)  -->
<svg version="1.1" id="图层_1" xmlns="http://www.w3.org/2000/svg" xmlns:xlink="http://www.w3.org/1999/xlink" x="0px" y="0px"
	 viewBox="0 0 196.04 112.59" style="enable-background:new 0 0 196.04 112.59;" xml:space="preserve">
<style type="text/css">
	.st0{fill:#070001;}
	.st1{clip-path:url(#SVGID_2_);fill:#C43C1D;}
	.st2{clip-path:url(#SVGID_2_);fill:#EECF22;}
	.st3{fill:#4F5FAA;}
</style>
<g>
	<path class="st0" d="M49.18,49.11l-7.76,12.73v11.54h-2.78V61.84l-7.89-12.73h3.32L40,58.69l5.87-9.58H49.18z"/>
	<path class="st0" d="M89.72,61.51c-0.07,3.93-1.21,6.99-3.43,9.18c-2.22,2.19-5.14,3.28-8.77,3.28c-4.16,0-7.47-1.28-9.95-3.83
		c-2.48-2.55-3.71-5.54-3.71-8.97s1.24-6.39,3.71-8.9c2.47-2.51,5.67-3.76,9.58-3.76c2.12,0,4.09,0.39,5.92,1.18
		c1.82,0.78,3.61,1.98,5.35,3.6l-2.19,2.09c-1.35-1.3-2.81-2.3-4.38-3s-3.18-1.05-4.84-1.05c-1.66,0-3.3,0.44-4.94,1.33
		c-1.64,0.88-2.92,2.08-3.85,3.58c-0.93,1.5-1.39,3.13-1.39,4.87c0,2.72,1.02,5.09,3.07,7.11c2.04,2.02,4.6,3.03,7.68,3.03
		c2.28,0,4.24-0.62,5.9-1.87c1.66-1.25,2.67-2.96,3.05-5.12h-7.56v-2.75H89.72z"/>
	<path class="st0" d="M116.21,73.38h-0.86l-15.38-17.6v17.6h-2.92V49.11h0.86l15.48,17.84V49.11h2.82V73.38z"/>
	<path class="st0" d="M127.38,73.38h-2.85V49.11h2.85V73.38z"/>
	<path class="st0" d="M146.84,51.9h-5.3v21.48h-2.89V51.9h-5.34v-2.79h13.53V51.9z"/>
	<path class="st0" d="M167.26,51.93h-11.27v6.96h11.17v2.79h-11.17v8.89h11.17v2.82h-14.02V49.11h14.12V51.93z"/>
</g>
<g>
	<defs>
		<path id="SVGID_1_" d="M61.54,46.57c2.65-2.22,6.8-0.33,10.29-3.5c1.99-1.81,1.92-4.5,1.92-4.5s-0.68,1.38-3.51,2.06
			c-2.24,0.54-5.01-1.21-7.66,0.27c-2.65,1.48,0.43-2.36,0.43-2.36s-3.51,0.64-5.34,2.12c-2.46,1.98-3.55,4.24-2.82,6
			C55.68,48.63,59.56,48.24,61.54,46.57z"/>
	</defs>
	<use xlink:href="#SVGID_1_"  style="overflow:visible;fill:#B61D22;"/>
	<clipPath id="SVGID_2_">
		<use xlink:href="#SVGID_1_"  style="overflow:visible;"/>
	</clipPath>
	<path class="st1" d="M55.7,46.77c-0.05-1.58,1.84-5.31,4.76-6.32c0,0-0.6,1.58-0.09,2.64c0,0,2.11-1.6,5.13-1.33
		c3.02,0.26,6.16-0.4,6.16-0.4s-2.66,2.62-6.26,2.5c-3.32-0.11-5.63,2.7-6.19,3.42c-0.24,0.31-0.44,0.76-0.94,0.95
		c-0.67,0.26-1.68,0.2-2.23,0.07C55.74,48.24,55.74,48.01,55.7,46.77z"/>
	<path class="st2" d="M55.71,47.65c0,0,0.12-2.31,2.68-3.37c0,0-0.86,1.21-0.34,1.46c0.51,0.25,1.25-0.79,1.98-1.34
		c0.73-0.55,2.06-0.46,2.06-0.46s-0.91,0.12-1.75,1.11c-0.79,0.94-1.18,3.26-2.35,3.17C56.28,48.1,55.98,48.02,55.71,47.65z"/>
</g>
<path class="st3" d="M58.06,73.96l-1.62-0.85c-0.26-0.13-0.42-0.44-0.42-0.77l-1.41-23.02c0-0.61,1.01-1.02,1.91-0.77l3.13,0.85
	c0.5,0.13,0.82,0.44,0.82,0.77l-1.41,23.02C59.05,73.79,58.53,74.2,58.06,73.96z"/>
</svg>
